<svg xmlns="http://www.w3.org/2000/svg" xmlns:xlink="http://www.w3.org/1999/xlink" width="500" zoomAndPan="magnify" viewBox="0 0 375 374.999991" height="500" preserveAspectRatio="xMidYMid meet" version="1.0"><path fill="#ff914d" d="M 194.683594 374.851562 C 190.707031 374.851562 186.894531 374.714844 183.300781 374.453125 C 147.769531 371.90625 115.527344 357.058594 96.921875 334.875 C 83.160156 318.359375 77.296875 298.695312 79.621094 276.359375 C 83.875 235.582031 107.269531 203.023438 144.191406 186.441406 C 140.972656 183.273438 137.460938 179.847656 133.789062 176.285156 C 88.925781 132.742188 13.84375 59.859375 51.410156 13.429688 C 52.714844 11.730469 54.1875 10.191406 55.824219 8.808594 C 57.457031 7.425781 59.222656 6.234375 61.113281 5.230469 C 63.007812 4.226562 64.984375 3.4375 67.046875 2.859375 C 69.109375 2.28125 71.210938 1.925781 73.347656 1.800781 C 96.742188 0.21875 123.234375 22.71875 133.527344 32.449219 C 137.550781 36.226562 141.410156 40.164062 145.101562 44.265625 C 148.796875 48.367188 152.3125 52.617188 155.648438 57.011719 C 158.984375 61.410156 162.132812 65.9375 165.089844 70.597656 C 168.046875 75.257812 170.800781 80.035156 173.359375 84.925781 C 175.914062 89.816406 178.261719 94.808594 180.398438 99.894531 C 182.535156 104.984375 184.457031 110.152344 186.160156 115.402344 C 187.863281 120.652344 189.34375 125.964844 190.601562 131.339844 C 191.859375 136.714844 192.890625 142.128906 193.691406 147.589844 C 197.0625 132.785156 201.605469 116.710938 208.085938 102.867188 C 221.671875 73.84375 243.511719 34.953125 276.027344 32.269531 L 276.25 35.019531 L 276.027344 32.269531 C 299.421875 30.355469 341.742188 73.402344 354.167969 111.699219 C 361.117188 133.140625 357.125 149.710938 342.910156 158.324219 C 341.46875 159.210938 339.921875 159.832031 338.273438 160.195312 C 336.621094 160.558594 334.957031 160.644531 333.277344 160.445312 C 313.613281 158.117188 290.535156 131.546875 283.117188 122.488281 L 281.410156 125.488281 C 269.777344 146.476562 256.332031 166.230469 241.074219 184.746094 C 278.039062 199.609375 314.90625 235.734375 311.382812 294.621094 C 311.265625 297.054688 311.023438 299.472656 310.65625 301.878906 C 310.289062 304.289062 309.800781 306.671875 309.191406 309.027344 C 308.582031 311.386719 307.851562 313.707031 307.003906 315.988281 C 306.15625 318.269531 305.191406 320.503906 304.113281 322.6875 C 303.039062 324.871094 301.851562 326.996094 300.554688 329.058594 C 299.261719 331.121094 297.863281 333.113281 296.367188 335.03125 C 294.867188 336.949219 293.273438 338.789062 291.585938 340.542969 C 289.898438 342.300781 288.125 343.964844 286.265625 345.539062 C 261.398438 367.390625 223.664062 374.851562 194.683594 374.851562 Z M 75.699219 7.222656 C 75.027344 7.222656 74.324219 7.222656 73.71875 7.222656 C 71.957031 7.320312 70.226562 7.609375 68.527344 8.085938 C 66.828125 8.5625 65.199219 9.21875 63.640625 10.050781 C 62.085938 10.882812 60.636719 11.871094 59.296875 13.019531 C 57.953125 14.167969 56.753906 15.445312 55.691406 16.855469 C 21.285156 59.378906 94.101562 130.074219 137.613281 172.363281 C 142.445312 177.042969 147 181.472656 150.976562 185.4375 C 151.300781 185.761719 151.527344 186.148438 151.660156 186.589844 C 151.792969 187.027344 151.8125 187.476562 151.71875 187.925781 C 151.628906 188.375 151.4375 188.777344 151.144531 189.128906 C 150.851562 189.484375 150.492188 189.746094 150.066406 189.921875 C 112.910156 205.15625 89.28125 236.875 85.101562 276.949219 C 82.925781 297.757812 88.332031 316.074219 101.132812 331.378906 C 121.882812 356.148438 157.390625 367.0625 183.703125 368.988281 C 212.4375 371.109375 255.578125 365.148438 282.648438 341.464844 C 284.367188 340.007812 286.007812 338.464844 287.570312 336.839844 C 289.132812 335.214844 290.609375 333.515625 291.996094 331.738281 C 293.382812 329.960938 294.675781 328.117188 295.875 326.207031 C 297.074219 324.296875 298.171875 322.332031 299.167969 320.308594 C 300.164062 318.285156 301.054688 316.21875 301.839844 314.105469 C 302.621094 311.988281 303.296875 309.839844 303.859375 307.65625 C 304.421875 305.476562 304.875 303.269531 305.210938 301.039062 C 305.546875 298.808594 305.769531 296.570312 305.878906 294.316406 C 309.34375 236.519531 271.804688 201.769531 235.515625 188.546875 C 235.304688 188.46875 235.109375 188.367188 234.925781 188.246094 C 234.742188 188.121094 234.574219 187.976562 234.425781 187.8125 C 234.273438 187.648438 234.148438 187.46875 234.042969 187.273438 C 233.933594 187.078125 233.855469 186.871094 233.796875 186.65625 C 233.742188 186.441406 233.710938 186.222656 233.710938 186 C 233.707031 185.777344 233.730469 185.558594 233.78125 185.34375 C 233.828125 185.125 233.90625 184.917969 234.003906 184.71875 C 234.105469 184.523438 234.226562 184.339844 234.371094 184.167969 C 256.03125 159.011719 269.972656 134.519531 276.675781 122.820312 C 280.652344 115.828125 280.984375 115.265625 282.773438 115.128906 C 283.238281 115.089844 283.683594 115.167969 284.113281 115.355469 C 284.539062 115.546875 284.894531 115.828125 285.179688 116.199219 C 285.457031 116.574219 313.007812 152.558594 333.980469 155.035156 C 335.039062 155.152344 336.089844 155.09375 337.128906 154.855469 C 338.167969 154.621094 339.140625 154.222656 340.046875 153.660156 C 355.183594 144.480469 353.230469 126.714844 348.925781 113.433594 C 337.597656 78.464844 296.972656 36.121094 276.539062 37.746094 C 246.8125 40.25 226.085938 77.40625 213.070312 105.191406 C 204.261719 124.003906 199.101562 147.300781 195.578125 165.507812 C 195.554688 165.875 195.464844 166.222656 195.304688 166.550781 C 195.144531 166.878906 194.929688 167.164062 194.65625 167.40625 C 194.382812 167.648438 194.070312 167.832031 193.726562 167.949219 C 193.382812 168.070312 193.027344 168.117188 192.660156 168.097656 C 192.296875 168.074219 191.949219 167.984375 191.621094 167.824219 C 191.292969 167.664062 191.003906 167.445312 190.761719 167.171875 C 190.519531 166.898438 190.339844 166.589844 190.21875 166.246094 C 190.101562 165.898438 190.050781 165.542969 190.074219 165.179688 C 186.453125 114.878906 165.578125 70.359375 129.699219 36.453125 C 122.40625 29.460938 97.128906 7.222656 75.699219 7.222656 Z M 75.699219 7.222656 " fill-opacity="1" fill-rule="nonzero"/><path fill="#ff914d" d="M 266.824219 333.355469 C 271.078125 337.609375 271.078125 344.515625 266.824219 348.769531 C 262.570312 353.027344 255.664062 353.027344 251.410156 348.769531 L 196.085938 293.449219 L 140.765625 348.769531 C 136.511719 353.027344 129.601562 353.027344 125.347656 348.769531 C 121.09375 344.515625 121.09375 337.609375 125.347656 333.355469 L 180.671875 278.035156 L 125.347656 222.710938 C 121.09375 218.457031 121.09375 211.550781 125.347656 207.296875 C 129.601562 203.042969 136.511719 203.042969 140.765625 207.296875 L 196.085938 262.617188 L 251.410156 207.296875 C 255.664062 203.042969 262.570312 203.042969 266.824219 207.296875 C 271.078125 211.550781 271.078125 218.457031 266.824219 222.710938 L 211.503906 278.035156 Z M 266.824219 333.355469 " fill-opacity="1" fill-rule="nonzero"/></svg>